<?xml version="1.0" standalone="no"?>
<!DOCTYPE svg PUBLIC "-//W3C//DTD SVG 20010904//EN"
 "http://www.w3.org/TR/2001/REC-SVG-20010904/DTD/svg10.dtd">
<svg version="1.0" xmlns="http://www.w3.org/2000/svg"
 width="1346.000000pt" height="1346.000000pt" viewBox="0 0 1346.000000 1346.000000"
 preserveAspectRatio="xMidYMid meet">
<metadata>
Created by potrace 1.14, written by Peter Selinger 2001-2017
</metadata>
<g transform="translate(0.000000,1346.000000) scale(0.100000,-0.100000)"
fill="#000000" stroke="none">
<path d="M6587 13304 c-1 -1 -72 -5 -157 -8 -85 -4 -177 -9 -205 -12 -86 -7
-269 -25 -295 -29 -14 -2 -50 -6 -80 -10 -187 -22 -540 -92 -783 -154 -347
-90 -742 -230 -1073 -381 -111 -51 -403 -198 -479 -242 -456 -263 -832 -531
-1178 -840 -110 -98 -435 -423 -528 -528 -903 -1020 -1462 -2257 -1623 -3590
-23 -192 -25 -217 -31 -340 -4 -63 -8 -128 -11 -145 -4 -33 -4 -552 1 -625 15
-237 24 -335 51 -560 31 -259 110 -633 196 -935 40 -140 130 -422 148 -460 5
-11 28 -69 51 -130 163 -427 439 -948 707 -1335 134 -193 342 -462 446 -579
17 -19 36 -39 41 -45 367 -419 823 -816 1300 -1131 249 -165 353 -225 620
-360 466 -236 777 -361 1205 -484 338 -97 808 -188 1110 -216 36 -3 72 -8 80
-10 104 -27 1093 -28 1236 -1 10 2 55 7 99 10 44 4 87 9 95 11 8 2 38 6 65 10
91 11 249 36 371 60 43 9 95 18 114 21 66 11 393 95 529 135 743 222 1487 599
2092 1060 134 102 157 121 308 248 140 117 484 448 571 551 12 14 38 43 59 65
137 147 375 452 523 670 588 864 946 1796 1093 2845 11 79 13 94 20 165 4 39
8 77 10 85 20 102 29 971 12 1125 -4 39 -10 95 -13 125 -7 74 -30 258 -39 320
-83 543 -214 1032 -399 1492 -96 238 -304 668 -428 880 -155 269 -419 645
-617 883 -237 283 -590 641 -811 821 -19 16 -37 31 -40 34 -13 15 -169 137
-285 224 -956 719 -2153 1177 -3340 1281 -38 3 -90 8 -115 10 -116 11 -614 26
-623 19z"/>
</g>
</svg>
